<?xml version="1.0" standalone="no"?>
<!DOCTYPE svg PUBLIC "-//W3C//DTD SVG 20010904//EN"
 "http://www.w3.org/TR/2001/REC-SVG-20010904/DTD/svg10.dtd">
<svg version="1.0" xmlns="http://www.w3.org/2000/svg"
 width="512.000000pt" height="512.000000pt" viewBox="0 0 512.000000 512.000000"
 preserveAspectRatio="xMidYMid meet">

<g transform="translate(0.000000,512.000000) scale(0.100000,-0.100000)"
fill="#000000" stroke="none">
<path d="M2690 4619 c-328 -22 -695 -148 -981 -337 -485 -320 -825 -832 -924
-1391 -22 -123 -36 -370 -27 -481 l7 -95 62 -6 c34 -3 74 -14 88 -23 25 -17
28 -17 45 -1 13 12 45 19 96 24 l78 6 -3 170 c-4 314 53 558 195 835 292 569
885 930 1529 930 801 0 1489 -534 1684 -1308 37 -145 52 -288 50 -457 l-3
-160 90 -7 c97 -7 158 -25 218 -64 24 -17 42 -22 48 -16 17 17 28 269 18 423
-34 515 -241 970 -609 1340 -64 64 -148 141 -187 171 -334 263 -737 419 -1156
448 -156 11 -152 11 -318 -1z"/>
<path d="M2760 4144 c-420 -28 -778 -197 -1076 -507 -209 -217 -360 -501 -418
-790 -39 -191 -42 -482 -6 -562 11 -23 21 -73 23 -120 5 -86 34 -177 48 -153
5 7 9 66 9 131 0 151 7 160 140 169 l35 3 -3 50 c-2 33 -8 53 -19 60 -9 6 -28
21 -41 33 -24 24 -25 26 -19 145 25 509 333 975 790 1196 197 96 346 137 538
148 130 7 155 2 179 -40 19 -31 24 -33 122 -49 419 -68 762 -302 971 -663 85
-146 153 -351 173 -518 6 -50 10 -60 35 -72 38 -20 49 -44 49 -109 0 -30 4
-57 9 -60 13 -8 173 12 184 23 16 16 -10 301 -37 421 -70 307 -208 553 -440
786 -287 287 -616 441 -1014 474 -114 9 -138 10 -232 4z"/>
<path d="M2933 3798 c-30 -30 -36 -32 -145 -39 -185 -14 -320 -50 -473 -126
-132 -66 -135 -69 -81 -103 47 -28 93 -100 106 -166 40 -191 -133 -364 -324
-324 -66 13 -138 59 -167 106 -12 19 -26 33 -33 31 -19 -5 -104 -177 -135
-272 -39 -120 -50 -179 -60 -313 -7 -108 -9 -114 -39 -145 -24 -25 -32 -42
-32 -69 0 -67 1 -68 119 -68 207 0 303 -31 389 -125 67 -73 93 -147 99 -288 8
-167 -20 -271 -98 -357 -35 -38 -34 -41 57 -106 131 -94 329 -177 497 -209
116 -22 136 -20 175 17 31 31 39 33 112 36 44 2 84 9 89 16 5 6 18 35 29 64
l20 53 -48 24 c-49 25 -92 71 -105 113 -9 32 -26 27 -57 -17 -62 -87 -177
-129 -328 -118 -129 8 -217 62 -264 160 -70 144 -28 317 97 403 106 73 311 72
419 -3 48 -32 82 -81 107 -149 20 -59 34 -56 36 7 2 54 32 108 79 144 66 50
237 70 371 43 l59 -11 41 45 c87 96 151 257 164 416 9 102 27 135 79 145 35 7
87 -16 102 -44 11 -20 10 -156 -2 -234 -3 -19 2 -20 62 -17 54 2 212 49 240
70 3 2 8 42 11 88 5 77 8 87 37 117 37 38 39 58 17 174 -100 522 -526 948
-1048 1048 -116 22 -137 20 -174 -17z m30 -783 c259 -55 437 -308 397 -568
-42 -275 -301 -469 -572 -427 -275 41 -471 302 -429 570 38 249 247 431 501
439 19 0 65 -6 103 -14z"/>
<path d="M2757 2926 c-73 -20 -78 -30 -34 -72 59 -57 63 -145 8 -203 -53 -57
-148 -54 -207 7 -34 35 -36 36 -49 18 -17 -23 -35 -104 -35 -159 0 -259 268
-468 518 -403 81 20 134 52 199 118 126 129 156 313 77 472 -30 60 -111 147
-171 181 -86 51 -208 67 -306 41z"/>
<path d="M3829 2250 c-106 -18 -174 -83 -198 -190 -11 -51 -5 -54 121 -64 l87
-6 11 40 c13 48 42 70 91 70 29 0 43 -6 58 -26 46 -59 19 -103 -137 -227 -65
-52 -135 -114 -155 -138 -49 -57 -90 -140 -91 -187 l-1 -37 313 -3 312 -2 0
90 0 90 -156 0 c-107 0 -153 3 -149 11 4 6 41 35 84 66 159 116 221 201 221
301 0 59 -45 139 -97 172 -69 44 -196 60 -314 40z"/>
<path d="M4563 2250 c-123 -26 -203 -128 -203 -260 0 -150 97 -253 240 -254
53 -1 74 4 114 27 l49 27 -6 -49 c-3 -28 -13 -64 -22 -81 -32 -62 -102 -64
-135 -5 -9 17 -21 30 -26 30 -25 -1 -162 -17 -181 -22 -22 -5 -22 -6 -7 -42
19 -46 68 -97 119 -124 33 -18 57 -22 145 -22 95 0 110 3 162 28 107 53 161
149 174 312 7 92 -8 209 -35 271 -27 61 -84 119 -141 143 -57 25 -181 35 -247
21z m144 -150 c78 -47 62 -203 -23 -224 -37 -10 -82 11 -99 45 -18 34 -19 115
-2 149 13 25 50 50 77 50 8 0 29 -9 47 -20z"/>
<path d="M4637 2043 c-14 -13 -7 -82 10 -98 16 -16 18 -16 35 5 21 25 22 38 8
74 -9 25 -38 35 -53 19z"/>
<path d="M63 2223 c3 -14 234 -627 272 -725 6 -16 23 -18 135 -18 l129 0 21
58 c12 31 73 194 135 362 63 168 117 313 120 323 7 16 -3 17 -117 17 l-124 0
-81 -262 -80 -261 -37 119 c-21 65 -58 183 -82 262 l-45 142 -126 0 c-115 0
-125 -2 -120 -17z"/>
<path d="M1002 2168 l3 -73 105 0 105 0 3 73 3 72 -111 0 -111 0 3 -72z"/>
<path d="M1402 1863 l3 -378 175 -3 c203 -3 294 8 363 45 59 33 92 70 125 143
34 73 43 233 18 330 -23 90 -76 165 -146 204 l-55 31 -243 3 -242 3 2 -378z
m394 178 c44 -27 59 -76 59 -191 0 -144 -26 -175 -152 -187 l-63 -6 0 202 0
201 63 0 c43 0 71 -6 93 -19z"/>
<path d="M1707 1993 c-4 -3 -7 -27 -7 -52 0 -46 39 -131 73 -159 36 -30 31
164 -4 199 -19 19 -50 25 -62 12z"/>
<path d="M1707 1784 c-4 -4 -7 -18 -7 -31 0 -18 5 -23 25 -23 14 0 25 3 25 8
-1 14 -36 53 -43 46z"/>
<path d="M909 2132 c-9 -20 -29 -72 -44 -116 -33 -89 -31 -106 27 -244 22 -54
33 -70 39 -59 11 19 13 405 2 434 -8 21 -9 21 -24 -15z"/>
<path d="M1005 2028 c-3 -7 -4 -132 -3 -278 l3 -265 105 0 105 0 0 275 0 275
-103 3 c-77 2 -104 -1 -107 -10z"/>
<path d="M2422 1951 c-99 -34 -157 -120 -156 -231 1 -144 86 -235 232 -247
128 -10 231 26 286 100 27 36 17 43 -82 50 -65 5 -79 3 -100 -14 -37 -29 -95
-26 -121 7 -41 52 -36 53 152 56 l172 3 3 45 c8 108 -56 204 -157 234 -72 21
-163 20 -229 -3z m177 -127 c37 -47 29 -54 -59 -54 -88 0 -96 7 -59 54 16 20
29 26 59 26 30 0 43 -6 59 -26z"/>
<path d="M3077 1956 c-26 -7 -59 -24 -74 -37 -27 -26 -57 -85 -49 -98 3 -4 42
-11 87 -15 78 -6 82 -6 105 19 31 34 107 36 125 4 15 -29 9 -31 -114 -59 -180
-40 -217 -67 -217 -164 0 -58 42 -110 103 -127 58 -15 151 -4 203 25 l42 23
11 -24 c10 -23 15 -24 93 -21 77 3 83 4 79 23 -2 11 -6 94 -10 185 -7 188 -17
218 -85 253 -50 26 -226 34 -299 13z m203 -270 c0 -33 -25 -78 -51 -91 -56
-30 -104 -11 -97 37 2 18 16 27 68 45 77 27 80 27 80 9z"/>
<path d="M1287 1753 c-4 -3 -7 -68 -7 -144 0 -176 -3 -181 -119 -189 -45 -3
-82 -8 -84 -12 -4 -12 122 -185 198 -271 332 -380 781 -626 1280 -702 150 -23
460 -23 610 0 575 88 1074 396 1417 876 32 45 56 85 53 89 -2 4 -28 10 -57 14
-99 13 -192 73 -235 150 -15 27 -33 11 -33 -28 0 -71 -34 -116 -88 -116 -9 0
-59 -44 -112 -98 -338 -346 -774 -532 -1250 -532 -475 0 -909 185 -1250 531
l-95 97 -69 4 c-98 6 -106 17 -106 162 0 93 -3 116 -20 144 -21 34 -23 36 -33
25z"/>
<path d="M1960 1466 c-38 -21 -162 -46 -224 -46 -31 0 -56 -4 -56 -9 0 -21
180 -177 283 -245 172 -115 372 -200 567 -240 102 -21 378 -42 391 -29 11 11
31 171 23 184 -3 5 -30 9 -60 9 -65 0 -89 11 -109 49 -13 26 -22 30 -77 36
-219 25 -470 126 -651 262 -31 23 -58 43 -60 43 -1 -1 -13 -7 -27 -14z"/>
</g>
</svg>
